#N canvas 9 0 1920 976 12;
#X msg 13 105 read rezultatai.txt;
#X obj 19 192 qlist;
#X msg 70 138 bang;
#X obj 1484 54 r up;
#X obj 16 15 tgl 15 0 empty empty empty 17 7 0 10 #fcfcfc #000000 #000000
0 1;
#X msg 19 35 \; pd dsp \$1;
#X msg 141 154 read stop.txt;
#X obj 221 515 r left0;
#X obj 1450 551 dac~;
#X floatatom 1441 456 5 0 1 0 - - - 0;
#X floatatom 246 331 5 0 0 0 - - - 0;
#X obj 217 351 osc~;
#X obj 247 378 *~ 0.1;
#X obj 255 353 != 0;
#X obj 293 407 i;
#X obj 299 377 metro 80;
#X floatatom 367 403 5 0 1000 0 - - - 0;
#X obj 344 357 bng 15 250 50 0 empty empty empty 17 7 0 10 #fcfcfc
#000000 #000000;
#X msg 255 404 0;
#X obj 332 427 / 1000;
#X obj 256 429 moses 1000;
#X floatatom 257 449 5 0 0 0 - - - 0;
#X obj 249 470 *~ 0;
#X obj 190 379 moses 1;
#X msg 203 402 0;
#X obj 293 353 spigot;
#X floatatom 222 540 5 0 0 0 - - - 0;
#X obj 190 566 osc~;
#X obj 220 593 *~ 0.1;
#X obj 234 565 != 0;
#X obj 273 630 i;
#X obj 282 600 metro 80;
#X floatatom 303 660 5 0 1000 0 - - - 0;
#X obj 338 578 bng 15 250 50 0 empty empty empty 17 7 0 10 #fcfcfc
#000000 #000000;
#X msg 238 627 0;
#X obj 272 678 / 1000;
#X floatatom 271 707 5 0 0 0 - - - 0;
#X obj 220 685 *~ 0;
#X obj 166 597 moses 1;
#X msg 187 620 0;
#X obj 279 565 spigot;
#X floatatom 471 331 5 0 0 0 - - - 0;
#X obj 442 351 osc~;
#X obj 472 378 *~ 0.1;
#X obj 480 353 != 0;
#X obj 518 407 i;
#X obj 524 377 metro 80;
#X floatatom 592 403 5 0 1000 0 - - - 0;
#X obj 569 357 bng 15 250 50 0 empty empty empty 17 7 0 10 #fcfcfc
#000000 #000000;
#X msg 480 404 0;
#X obj 557 427 / 1000;
#X obj 481 429 moses 1000;
#X floatatom 482 449 5 0 0 0 - - - 0;
#X obj 474 470 *~ 0;
#X obj 415 379 moses 1;
#X msg 428 402 0;
#X obj 518 353 spigot;
#X floatatom 700 326 5 0 0 0 - - - 0;
#X obj 671 346 osc~;
#X obj 701 373 *~ 0.1;
#X obj 709 348 != 0;
#X obj 747 402 i;
#X obj 753 372 metro 80;
#X floatatom 821 398 5 0 1000 0 - - - 0;
#X obj 798 352 bng 15 250 50 0 empty empty empty 17 7 0 10 #fcfcfc
#000000 #000000;
#X msg 709 399 0;
#X obj 786 422 / 1000;
#X obj 710 424 moses 1000;
#X floatatom 711 444 5 0 0 0 - - - 0;
#X obj 703 465 *~ 0;
#X obj 644 374 moses 1;
#X msg 657 397 0;
#X obj 747 348 spigot;
#X floatatom 365 177 5 0 0 0 - - - 0;
#X obj 336 197 osc~;
#X obj 368 147 r right0;
#X obj 366 224 *~ 0.1;
#X obj 374 199 != 0;
#X obj 412 253 i;
#X obj 418 223 metro 80;
#X floatatom 486 249 5 0 1000 0 - - - 0;
#X obj 463 203 bng 15 250 50 0 empty empty empty 17 7 0 10 #fcfcfc
#000000 #000000;
#X msg 374 250 0;
#X obj 451 273 / 1000;
#X obj 375 275 moses 1000;
#X floatatom 376 295 5 0 0 0 - - - 0;
#X obj 368 316 *~ 0;
#X obj 309 225 moses 1;
#X msg 322 248 0;
#X obj 412 199 spigot;
#X floatatom 590 177 5 0 0 0 - - - 0;
#X obj 561 197 osc~;
#X obj 591 224 *~ 0.1;
#X obj 599 199 != 0;
#X obj 637 253 i;
#X obj 643 223 metro 80;
#X floatatom 711 249 5 0 1000 0 - - - 0;
#X obj 688 203 bng 15 250 50 0 empty empty empty 17 7 0 10 #fcfcfc
#000000 #000000;
#X msg 599 250 0;
#X obj 676 273 / 1000;
#X obj 600 275 moses 1000;
#X floatatom 601 295 5 0 0 0 - - - 0;
#X obj 593 316 *~ 0;
#X obj 534 225 moses 1;
#X msg 547 248 0;
#X obj 637 199 spigot;
#X floatatom 819 172 5 0 0 0 - - - 0;
#X obj 790 192 osc~;
#X obj 820 219 *~ 0.1;
#X obj 828 194 != 0;
#X obj 866 248 i;
#X obj 872 218 metro 80;
#X floatatom 940 244 5 0 1000 0 - - - 0;
#X obj 917 198 bng 15 250 50 0 empty empty empty 17 7 0 10 #fcfcfc
#000000 #000000;
#X msg 828 245 0;
#X obj 905 268 / 1000;
#X obj 829 270 moses 1000;
#X floatatom 830 290 5 0 0 0 - - - 0;
#X obj 822 311 *~ 0;
#X obj 763 220 moses 1;
#X msg 776 243 0;
#X obj 866 194 spigot;
#X floatatom 930 325 5 0 0 0 - - - 0;
#X obj 901 345 osc~;
#X obj 931 372 *~ 0.1;
#X obj 939 347 != 0;
#X obj 977 401 i;
#X obj 983 371 metro 80;
#X floatatom 1051 397 5 0 1000 0 - - - 0;
#X obj 1028 351 bng 15 250 50 0 empty empty empty 17 7 0 10 #fcfcfc
#000000 #000000;
#X msg 939 398 0;
#X obj 1016 421 / 1000;
#X obj 940 423 moses 1000;
#X floatatom 941 443 5 0 0 0 - - - 0;
#X obj 933 464 *~ 0;
#X obj 874 373 moses 1;
#X msg 887 396 0;
#X obj 977 347 spigot;
#X floatatom 1058 172 5 0 0 0 - - - 0;
#X obj 1029 192 osc~;
#X obj 1059 219 *~ 0.1;
#X obj 1067 194 != 0;
#X obj 1105 248 i;
#X obj 1111 218 metro 80;
#X floatatom 1179 244 5 0 1000 0 - - - 0;
#X obj 1156 198 bng 15 250 50 0 empty empty empty 17 7 0 10 #fcfcfc
#000000 #000000;
#X msg 1067 245 0;
#X obj 1144 268 / 1000;
#X obj 1068 270 moses 1000;
#X floatatom 1069 290 5 0 0 0 - - - 0;
#X obj 1061 311 *~ 0;
#X obj 1002 220 moses 1;
#X msg 1015 243 0;
#X obj 1105 194 spigot;
#X floatatom 1163 322 5 0 0 0 - - - 0;
#X obj 1134 342 osc~;
#X obj 1164 369 *~ 0.1;
#X obj 1172 344 != 0;
#X obj 1210 398 i;
#X obj 1216 368 metro 80;
#X floatatom 1284 394 5 0 1000 0 - - - 0;
#X obj 1261 348 bng 15 250 50 0 empty empty empty 17 7 0 10 #fcfcfc
#000000 #000000;
#X msg 1172 395 0;
#X obj 1249 418 / 1000;
#X obj 1173 420 moses 1000;
#X floatatom 1174 440 5 0 0 0 - - - 0;
#X obj 1166 461 *~ 0;
#X obj 1107 370 moses 1;
#X msg 1120 393 0;
#X obj 1210 344 spigot;
#X obj 593 147 r right1;
#X obj 822 142 r right2;
#X obj 1166 292 r right8;
#X obj 1061 142 r right3;
#X obj 249 301 r right4;
#X obj 474 301 r right5;
#X obj 703 296 r right6;
#X obj 933 295 r right7;
#X floatatom 463 541 5 0 0 0 - - - 0;
#X obj 431 567 osc~;
#X obj 461 594 *~ 0.1;
#X obj 475 566 != 0;
#X obj 514 631 i;
#X obj 520 601 metro 80;
#X floatatom 544 661 5 0 1000 0 - - - 0;
#X obj 579 579 bng 15 250 50 0 empty empty empty 17 7 0 10 #fcfcfc
#000000 #000000;
#X msg 479 628 0;
#X obj 513 679 / 1000;
#X floatatom 512 708 5 0 0 0 - - - 0;
#X obj 461 686 *~ 0;
#X obj 407 598 moses 1;
#X msg 428 621 0;
#X obj 520 566 spigot;
#X floatatom 701 543 5 0 0 0 - - - 0;
#X obj 669 569 osc~;
#X obj 699 596 *~ 0.1;
#X obj 713 568 != 0;
#X obj 752 633 i;
#X obj 758 603 metro 80;
#X floatatom 782 663 5 0 1000 0 - - - 0;
#X obj 817 581 bng 15 250 50 0 empty empty empty 17 7 0 10 #fcfcfc
#000000 #000000;
#X msg 717 630 0;
#X obj 751 681 / 1000;
#X floatatom 750 710 5 0 0 0 - - - 0;
#X obj 699 688 *~ 0;
#X obj 645 600 moses 1;
#X msg 666 623 0;
#X obj 758 568 spigot;
#X floatatom 944 544 5 0 0 0 - - - 0;
#X obj 912 570 osc~;
#X obj 942 597 *~ 0.1;
#X obj 956 569 != 0;
#X obj 995 634 i;
#X obj 1001 604 metro 80;
#X floatatom 1025 664 5 0 1000 0 - - - 0;
#X obj 1060 582 bng 15 250 50 0 empty empty empty 17 7 0 10 #fcfcfc
#000000 #000000;
#X msg 960 631 0;
#X obj 994 682 / 1000;
#X floatatom 993 711 5 0 0 0 - - - 0;
#X obj 942 689 *~ 0;
#X obj 888 601 moses 1;
#X msg 909 624 0;
#X obj 1001 569 spigot;
#X floatatom 367 711 5 0 0 0 - - - 0;
#X obj 335 737 osc~;
#X obj 365 764 *~ 0.1;
#X obj 379 736 != 0;
#X obj 418 801 i;
#X obj 424 771 metro 80;
#X floatatom 448 831 5 0 1000 0 - - - 0;
#X obj 483 749 bng 15 250 50 0 empty empty empty 17 7 0 10 #fcfcfc
#000000 #000000;
#X msg 383 798 0;
#X obj 417 849 / 1000;
#X floatatom 416 878 5 0 0 0 - - - 0;
#X obj 365 856 *~ 0;
#X obj 311 768 moses 1;
#X msg 332 791 0;
#X obj 424 736 spigot;
#X floatatom 608 712 5 0 0 0 - - - 0;
#X obj 576 738 osc~;
#X obj 606 765 *~ 0.1;
#X obj 620 737 != 0;
#X obj 659 802 i;
#X obj 665 772 metro 80;
#X floatatom 689 832 5 0 1000 0 - - - 0;
#X obj 724 750 bng 15 250 50 0 empty empty empty 17 7 0 10 #fcfcfc
#000000 #000000;
#X msg 624 799 0;
#X obj 658 850 / 1000;
#X floatatom 657 879 5 0 0 0 - - - 0;
#X obj 606 857 *~ 0;
#X obj 552 769 moses 1;
#X msg 573 792 0;
#X obj 665 737 spigot;
#X floatatom 846 714 5 0 0 0 - - - 0;
#X obj 814 740 osc~;
#X obj 844 767 *~ 0.1;
#X obj 858 739 != 0;
#X obj 897 804 i;
#X obj 903 774 metro 80;
#X floatatom 927 834 5 0 1000 0 - - - 0;
#X obj 962 752 bng 15 250 50 0 empty empty empty 17 7 0 10 #fcfcfc
#000000 #000000;
#X msg 862 801 0;
#X obj 896 852 / 1000;
#X floatatom 895 881 5 0 0 0 - - - 0;
#X obj 844 859 *~ 0;
#X obj 790 771 moses 1;
#X msg 811 794 0;
#X obj 903 739 spigot;
#X floatatom 1089 715 5 0 0 0 - - - 0;
#X obj 1057 741 osc~;
#X obj 1087 768 *~ 0.1;
#X obj 1101 740 != 0;
#X obj 1140 805 i;
#X obj 1146 775 metro 80;
#X floatatom 1170 835 5 0 1000 0 - - - 0;
#X obj 1205 753 bng 15 250 50 0 empty empty empty 17 7 0 10 #fcfcfc
#000000 #000000;
#X msg 1105 802 0;
#X obj 1139 853 / 1000;
#X floatatom 1138 882 5 0 0 0 - - - 0;
#X obj 1087 860 *~ 0;
#X obj 1033 772 moses 1;
#X msg 1054 795 0;
#X obj 1146 740 spigot;
#X floatatom 1189 544 5 0 0 0 - - - 0;
#X obj 1157 570 osc~;
#X obj 1187 597 *~ 0.1;
#X obj 1201 569 != 0;
#X obj 1240 634 i;
#X obj 1246 604 metro 80;
#X floatatom 1270 664 5 0 1000 0 - - - 0;
#X obj 1305 582 bng 15 250 50 0 empty empty empty 17 7 0 10 #fcfcfc
#000000 #000000;
#X msg 1205 631 0;
#X obj 1239 682 / 1000;
#X floatatom 1238 711 5 0 0 0 - - - 0;
#X obj 1187 689 *~ 0;
#X obj 1133 601 moses 1;
#X msg 1154 624 0;
#X obj 1246 569 spigot;
#X obj 462 516 r left1;
#X obj 700 518 r left2;
#X obj 943 519 r left3;
#X obj 1188 519 r left4;
#X obj 366 686 r left5;
#X obj 607 687 r left6;
#X obj 845 689 r left7;
#X obj 1088 690 r left8;
#X obj 1413 499 *~;
#X msg 486 225 50, f 5;
#X msg 711 225 50, f 5;
#X msg 940 220 50, f 5;
#X msg 1179 220 50, f 5;
#X msg 365 379 50, f 5;
#X msg 592 379 50, f 5;
#X msg 821 373 50, f 5;
#X msg 1051 373 50, f 5;
#X msg 1285 370 50, f 5;
#X msg 361 600 900;
#X msg 602 601 900;
#X msg 840 603 900;
#X msg 1083 604 900;
#X msg 1328 605 900;
#X msg 506 771 900;
#X msg 747 772 900;
#X msg 985 774 900;
#X msg 1228 775 900;
#X obj 327 635 - 8;
#X obj 568 636 - 8;
#X obj 806 638 - 8;
#X obj 1049 639 - 8;
#X obj 1294 639 - 8;
#X obj 472 806 - 8;
#X obj 713 807 - 8;
#X obj 951 809 - 8;
#X obj 1194 810 - 8;
#X obj 711 659 moses -10;
#X obj 473 657 moses -10;
#X obj 232 661 moses -10;
#X obj 954 660 moses -10;
#X obj 1197 661 moses -10;
#X obj 377 827 moses -10;
#X obj 618 828 moses -10;
#X obj 856 830 moses -10;
#X obj 1099 831 moses -10;
#X obj 445 252 + 8, f 4;
#X obj 670 252 + 8, f 4;
#X obj 899 247 + 8, f 4;
#X obj 1137 247 + 8, f 4;
#X obj 326 406 + 8, f 4;
#X obj 551 406 + 8, f 4;
#X obj 780 401 + 8, f 4;
#X obj 1010 400 + 8, f 4;
#X obj 1243 397 + 8, f 4;
#X floatatom 1456 102 5 0 0 0 - - - 0;
#X obj 1434 132 noise~;
#X obj 1532 164 bng 15 250 50 0 empty empty empty 17 7 0 10 #fcfcfc
#000000 #000000;
#X obj 1472 249 i;
#X floatatom 1475 284 5 0 0 0 - - - 0;
#X obj 1415 363 *~;
#X floatatom 1378 287 5 0 0 0 - - - 0;
#X msg 1373 175 1, f 4;
#X obj 1438 162 bp~ 1000 -5;
#X obj 1507 252 + 1;
#X msg 1477 346 0;
#X obj 1459 323 moses 3;
#X obj 1470 204 metro 100;
#X floatatom 1637 185 5 0 0 0 - - - 0;
#X obj 1615 215 noise~;
#X obj 1713 247 bng 15 250 50 0 empty empty empty 17 7 0 10 #fcfcfc
#000000 #000000;
#X obj 1653 332 i;
#X floatatom 1656 367 5 0 0 0 - - - 0;
#X obj 1596 446 *~;
#X floatatom 1559 370 5 0 0 0 - - - 0;
#X msg 1554 258 1, f 4;
#X obj 1688 335 + 1;
#X msg 1658 429 0;
#X obj 1640 406 moses 3;
#X obj 1651 287 metro 100;
#X obj 1665 137 r down;
#X obj 1619 245 bp~ 1000 5;
#X obj 1525 123 moses 1;
#X obj 1706 206 moses 1;
#X msg 1478 423 0.4;
#X msg 1421 401 1;
#X msg 1463 397 0.8;
#X msg 1497 446 0.2;
#X connect 0 0 1 0;
#X connect 2 0 1 0;
#X connect 3 0 352 0;
#X connect 4 0 5 0;
#X connect 6 0 1 0;
#X connect 7 0 26 0;
#X connect 9 0 306 1;
#X connect 10 0 11 0;
#X connect 10 0 23 0;
#X connect 10 0 13 0;
#X connect 10 0 25 0;
#X connect 11 0 12 0;
#X connect 12 0 22 0;
#X connect 13 0 12 1;
#X connect 13 0 25 1;
#X connect 14 0 16 0;
#X connect 14 0 347 0;
#X connect 15 0 14 0;
#X connect 16 0 20 0;
#X connect 17 0 15 0;
#X connect 17 0 311 0;
#X connect 18 0 15 0;
#X connect 19 0 21 0;
#X connect 20 0 19 0;
#X connect 20 1 18 0;
#X connect 21 0 22 1;
#X connect 22 0 306 0;
#X connect 23 0 24 0;
#X connect 24 0 15 0;
#X connect 24 0 14 0;
#X connect 25 0 17 0;
#X connect 26 0 27 0;
#X connect 26 0 38 0;
#X connect 26 0 29 0;
#X connect 26 0 40 0;
#X connect 27 0 28 0;
#X connect 28 0 37 0;
#X connect 29 0 28 1;
#X connect 29 0 40 1;
#X connect 30 0 32 0;
#X connect 30 0 325 0;
#X connect 31 0 30 0;
#X connect 32 0 336 0;
#X connect 33 0 31 0;
#X connect 33 0 316 0;
#X connect 34 0 31 0;
#X connect 35 0 36 0;
#X connect 36 0 37 1;
#X connect 37 0 306 0;
#X connect 38 0 39 0;
#X connect 39 0 30 0;
#X connect 39 0 31 0;
#X connect 40 0 33 0;
#X connect 41 0 42 0;
#X connect 41 0 54 0;
#X connect 41 0 44 0;
#X connect 41 0 56 0;
#X connect 42 0 43 0;
#X connect 43 0 53 0;
#X connect 44 0 43 1;
#X connect 44 0 56 1;
#X connect 45 0 47 0;
#X connect 45 0 348 0;
#X connect 46 0 45 0;
#X connect 47 0 51 0;
#X connect 48 0 46 0;
#X connect 48 0 312 0;
#X connect 49 0 46 0;
#X connect 50 0 52 0;
#X connect 51 0 50 0;
#X connect 51 1 49 0;
#X connect 52 0 53 1;
#X connect 53 0 306 0;
#X connect 54 0 55 0;
#X connect 55 0 46 0;
#X connect 55 0 45 0;
#X connect 56 0 48 0;
#X connect 57 0 58 0;
#X connect 57 0 70 0;
#X connect 57 0 60 0;
#X connect 57 0 72 0;
#X connect 58 0 59 0;
#X connect 59 0 69 0;
#X connect 60 0 59 1;
#X connect 60 0 72 1;
#X connect 61 0 63 0;
#X connect 61 0 349 0;
#X connect 62 0 61 0;
#X connect 63 0 67 0;
#X connect 64 0 62 0;
#X connect 64 0 313 0;
#X connect 65 0 62 0;
#X connect 66 0 68 0;
#X connect 67 0 66 0;
#X connect 67 1 65 0;
#X connect 68 0 69 1;
#X connect 69 0 306 0;
#X connect 70 0 71 0;
#X connect 71 0 62 0;
#X connect 71 0 61 0;
#X connect 72 0 64 0;
#X connect 73 0 74 0;
#X connect 73 0 87 0;
#X connect 73 0 77 0;
#X connect 73 0 89 0;
#X connect 74 0 76 0;
#X connect 75 0 73 0;
#X connect 76 0 86 0;
#X connect 77 0 76 1;
#X connect 77 0 89 1;
#X connect 78 0 80 0;
#X connect 78 0 343 0;
#X connect 79 0 78 0;
#X connect 80 0 84 0;
#X connect 81 0 79 0;
#X connect 81 0 307 0;
#X connect 82 0 79 0;
#X connect 83 0 85 0;
#X connect 84 0 83 0;
#X connect 84 1 82 0;
#X connect 85 0 86 1;
#X connect 86 0 306 0;
#X connect 87 0 88 0;
#X connect 88 0 79 0;
#X connect 88 0 78 0;
#X connect 89 0 81 0;
#X connect 90 0 91 0;
#X connect 90 0 103 0;
#X connect 90 0 93 0;
#X connect 90 0 105 0;
#X connect 91 0 92 0;
#X connect 92 0 102 0;
#X connect 93 0 92 1;
#X connect 93 0 105 1;
#X connect 94 0 96 0;
#X connect 94 0 344 0;
#X connect 95 0 94 0;
#X connect 96 0 100 0;
#X connect 97 0 95 0;
#X connect 97 0 308 0;
#X connect 98 0 95 0;
#X connect 99 0 101 0;
#X connect 100 0 99 0;
#X connect 100 1 98 0;
#X connect 101 0 102 1;
#X connect 102 0 306 0;
#X connect 103 0 104 0;
#X connect 104 0 95 0;
#X connect 104 0 94 0;
#X connect 105 0 97 0;
#X connect 106 0 107 0;
#X connect 106 0 119 0;
#X connect 106 0 109 0;
#X connect 106 0 121 0;
#X connect 107 0 108 0;
#X connect 108 0 118 0;
#X connect 109 0 108 1;
#X connect 109 0 121 1;
#X connect 110 0 112 0;
#X connect 110 0 345 0;
#X connect 111 0 110 0;
#X connect 112 0 116 0;
#X connect 113 0 111 0;
#X connect 113 0 309 0;
#X connect 114 0 111 0;
#X connect 115 0 117 0;
#X connect 116 0 115 0;
#X connect 116 1 114 0;
#X connect 117 0 118 1;
#X connect 118 0 306 0;
#X connect 119 0 120 0;
#X connect 120 0 111 0;
#X connect 120 0 110 0;
#X connect 121 0 113 0;
#X connect 122 0 123 0;
#X connect 122 0 135 0;
#X connect 122 0 125 0;
#X connect 122 0 137 0;
#X connect 123 0 124 0;
#X connect 124 0 134 0;
#X connect 125 0 124 1;
#X connect 125 0 137 1;
#X connect 126 0 128 0;
#X connect 126 0 350 0;
#X connect 127 0 126 0;
#X connect 128 0 132 0;
#X connect 129 0 127 0;
#X connect 129 0 314 0;
#X connect 130 0 127 0;
#X connect 131 0 133 0;
#X connect 132 0 131 0;
#X connect 132 1 130 0;
#X connect 133 0 134 1;
#X connect 134 0 306 0;
#X connect 135 0 136 0;
#X connect 136 0 127 0;
#X connect 136 0 126 0;
#X connect 137 0 129 0;
#X connect 138 0 139 0;
#X connect 138 0 151 0;
#X connect 138 0 141 0;
#X connect 138 0 153 0;
#X connect 139 0 140 0;
#X connect 140 0 150 0;
#X connect 141 0 140 1;
#X connect 141 0 153 1;
#X connect 142 0 144 0;
#X connect 142 0 346 0;
#X connect 143 0 142 0;
#X connect 144 0 148 0;
#X connect 145 0 143 0;
#X connect 145 0 310 0;
#X connect 146 0 143 0;
#X connect 147 0 149 0;
#X connect 148 0 147 0;
#X connect 148 1 146 0;
#X connect 149 0 150 1;
#X connect 150 0 306 0;
#X connect 151 0 152 0;
#X connect 152 0 143 0;
#X connect 152 0 142 0;
#X connect 153 0 145 0;
#X connect 154 0 155 0;
#X connect 154 0 167 0;
#X connect 154 0 157 0;
#X connect 154 0 169 0;
#X connect 155 0 156 0;
#X connect 156 0 166 0;
#X connect 157 0 156 1;
#X connect 157 0 169 1;
#X connect 158 0 160 0;
#X connect 158 0 351 0;
#X connect 159 0 158 0;
#X connect 160 0 164 0;
#X connect 161 0 159 0;
#X connect 161 0 315 0;
#X connect 162 0 159 0;
#X connect 163 0 165 0;
#X connect 164 0 163 0;
#X connect 164 1 162 0;
#X connect 165 0 166 1;
#X connect 166 0 306 0;
#X connect 167 0 168 0;
#X connect 168 0 159 0;
#X connect 168 0 158 0;
#X connect 169 0 161 0;
#X connect 170 0 90 0;
#X connect 171 0 106 0;
#X connect 172 0 154 0;
#X connect 173 0 138 0;
#X connect 174 0 10 0;
#X connect 175 0 41 0;
#X connect 176 0 57 0;
#X connect 177 0 122 0;
#X connect 178 0 179 0;
#X connect 178 0 190 0;
#X connect 178 0 181 0;
#X connect 178 0 192 0;
#X connect 179 0 180 0;
#X connect 180 0 189 0;
#X connect 181 0 180 1;
#X connect 181 0 192 1;
#X connect 182 0 184 0;
#X connect 182 0 326 0;
#X connect 183 0 182 0;
#X connect 184 0 335 0;
#X connect 185 0 183 0;
#X connect 185 0 317 0;
#X connect 186 0 183 0;
#X connect 187 0 188 0;
#X connect 188 0 189 1;
#X connect 189 0 306 0;
#X connect 190 0 191 0;
#X connect 191 0 183 0;
#X connect 191 0 182 0;
#X connect 192 0 185 0;
#X connect 193 0 194 0;
#X connect 193 0 205 0;
#X connect 193 0 196 0;
#X connect 193 0 207 0;
#X connect 194 0 195 0;
#X connect 195 0 204 0;
#X connect 196 0 195 1;
#X connect 196 0 207 1;
#X connect 197 0 199 0;
#X connect 197 0 327 0;
#X connect 198 0 197 0;
#X connect 199 0 334 0;
#X connect 200 0 198 0;
#X connect 200 0 318 0;
#X connect 201 0 198 0;
#X connect 202 0 203 0;
#X connect 203 0 204 1;
#X connect 204 0 306 0;
#X connect 205 0 206 0;
#X connect 206 0 198 0;
#X connect 206 0 197 0;
#X connect 207 0 200 0;
#X connect 208 0 209 0;
#X connect 208 0 220 0;
#X connect 208 0 211 0;
#X connect 208 0 222 0;
#X connect 209 0 210 0;
#X connect 210 0 219 0;
#X connect 211 0 210 1;
#X connect 211 0 222 1;
#X connect 212 0 214 0;
#X connect 212 0 328 0;
#X connect 213 0 212 0;
#X connect 214 0 337 0;
#X connect 215 0 213 0;
#X connect 215 0 319 0;
#X connect 216 0 213 0;
#X connect 217 0 218 0;
#X connect 218 0 219 1;
#X connect 219 0 306 0;
#X connect 220 0 221 0;
#X connect 221 0 213 0;
#X connect 221 0 212 0;
#X connect 222 0 215 0;
#X connect 223 0 224 0;
#X connect 223 0 235 0;
#X connect 223 0 226 0;
#X connect 223 0 237 0;
#X connect 224 0 225 0;
#X connect 225 0 234 0;
#X connect 226 0 225 1;
#X connect 226 0 237 1;
#X connect 227 0 229 0;
#X connect 227 0 330 0;
#X connect 228 0 227 0;
#X connect 229 0 339 0;
#X connect 230 0 228 0;
#X connect 230 0 321 0;
#X connect 231 0 228 0;
#X connect 232 0 233 0;
#X connect 233 0 234 1;
#X connect 234 0 306 0;
#X connect 235 0 236 0;
#X connect 236 0 228 0;
#X connect 236 0 227 0;
#X connect 237 0 230 0;
#X connect 238 0 239 0;
#X connect 238 0 250 0;
#X connect 238 0 241 0;
#X connect 238 0 252 0;
#X connect 239 0 240 0;
#X connect 240 0 249 0;
#X connect 241 0 240 1;
#X connect 241 0 252 1;
#X connect 242 0 244 0;
#X connect 242 0 331 0;
#X connect 243 0 242 0;
#X connect 244 0 340 0;
#X connect 245 0 243 0;
#X connect 245 0 322 0;
#X connect 246 0 243 0;
#X connect 247 0 248 0;
#X connect 248 0 249 1;
#X connect 249 0 306 0;
#X connect 250 0 251 0;
#X connect 251 0 243 0;
#X connect 251 0 242 0;
#X connect 252 0 245 0;
#X connect 253 0 254 0;
#X connect 253 0 265 0;
#X connect 253 0 256 0;
#X connect 253 0 267 0;
#X connect 254 0 255 0;
#X connect 255 0 264 0;
#X connect 256 0 255 1;
#X connect 256 0 267 1;
#X connect 257 0 259 0;
#X connect 257 0 332 0;
#X connect 258 0 257 0;
#X connect 259 0 341 0;
#X connect 260 0 258 0;
#X connect 260 0 323 0;
#X connect 261 0 258 0;
#X connect 262 0 263 0;
#X connect 263 0 264 1;
#X connect 264 0 306 0;
#X connect 265 0 266 0;
#X connect 266 0 258 0;
#X connect 266 0 257 0;
#X connect 267 0 260 0;
#X connect 268 0 269 0;
#X connect 268 0 280 0;
#X connect 268 0 271 0;
#X connect 268 0 282 0;
#X connect 269 0 270 0;
#X connect 270 0 279 0;
#X connect 271 0 270 1;
#X connect 271 0 282 1;
#X connect 272 0 274 0;
#X connect 272 0 333 0;
#X connect 273 0 272 0;
#X connect 274 0 342 0;
#X connect 275 0 273 0;
#X connect 275 0 324 0;
#X connect 276 0 273 0;
#X connect 277 0 278 0;
#X connect 278 0 279 1;
#X connect 279 0 306 0;
#X connect 280 0 281 0;
#X connect 281 0 273 0;
#X connect 281 0 272 0;
#X connect 282 0 275 0;
#X connect 283 0 284 0;
#X connect 283 0 295 0;
#X connect 283 0 286 0;
#X connect 283 0 297 0;
#X connect 284 0 285 0;
#X connect 285 0 294 0;
#X connect 286 0 285 1;
#X connect 286 0 297 1;
#X connect 287 0 289 0;
#X connect 287 0 329 0;
#X connect 288 0 287 0;
#X connect 289 0 338 0;
#X connect 290 0 288 0;
#X connect 290 0 320 0;
#X connect 291 0 288 0;
#X connect 292 0 293 0;
#X connect 293 0 294 1;
#X connect 294 0 306 0;
#X connect 295 0 296 0;
#X connect 296 0 288 0;
#X connect 296 0 287 0;
#X connect 297 0 290 0;
#X connect 298 0 178 0;
#X connect 299 0 193 0;
#X connect 300 0 208 0;
#X connect 301 0 283 0;
#X connect 302 0 223 0;
#X connect 303 0 238 0;
#X connect 304 0 253 0;
#X connect 305 0 268 0;
#X connect 306 0 8 0;
#X connect 306 0 8 1;
#X connect 307 0 78 0;
#X connect 308 0 94 0;
#X connect 309 0 110 0;
#X connect 310 0 142 0;
#X connect 311 0 14 0;
#X connect 312 0 45 0;
#X connect 313 0 61 0;
#X connect 314 0 126 0;
#X connect 315 0 158 0;
#X connect 316 0 30 0;
#X connect 317 0 182 0;
#X connect 318 0 197 0;
#X connect 319 0 212 0;
#X connect 320 0 287 0;
#X connect 321 0 227 0;
#X connect 322 0 242 0;
#X connect 323 0 257 0;
#X connect 324 0 272 0;
#X connect 325 0 30 1;
#X connect 326 0 182 1;
#X connect 327 0 197 1;
#X connect 328 0 212 1;
#X connect 329 0 287 1;
#X connect 330 0 227 1;
#X connect 331 0 242 1;
#X connect 332 0 257 1;
#X connect 333 0 272 1;
#X connect 334 0 201 0;
#X connect 334 1 202 0;
#X connect 335 0 186 0;
#X connect 335 1 187 0;
#X connect 336 0 34 0;
#X connect 336 1 35 0;
#X connect 337 0 216 0;
#X connect 337 1 217 0;
#X connect 338 0 291 0;
#X connect 338 1 292 0;
#X connect 339 0 231 0;
#X connect 339 1 232 0;
#X connect 340 0 246 0;
#X connect 340 1 247 0;
#X connect 341 0 261 0;
#X connect 341 1 262 0;
#X connect 342 0 276 0;
#X connect 342 1 277 0;
#X connect 343 0 78 1;
#X connect 344 0 94 1;
#X connect 345 0 110 1;
#X connect 346 0 142 1;
#X connect 347 0 14 1;
#X connect 348 0 45 1;
#X connect 349 0 61 1;
#X connect 350 0 126 1;
#X connect 351 0 158 1;
#X connect 352 0 360 1;
#X connect 352 0 379 0;
#X connect 353 0 360 0;
#X connect 354 0 359 0;
#X connect 354 0 364 0;
#X connect 355 0 356 0;
#X connect 355 0 361 0;
#X connect 356 0 363 0;
#X connect 357 0 306 0;
#X connect 358 0 357 1;
#X connect 359 0 355 0;
#X connect 360 0 357 0;
#X connect 361 0 355 1;
#X connect 362 0 357 1;
#X connect 362 0 364 0;
#X connect 363 0 357 1;
#X connect 363 0 359 0;
#X connect 363 1 362 0;
#X connect 364 0 355 0;
#X connect 365 0 378 1;
#X connect 365 0 380 0;
#X connect 366 0 378 0;
#X connect 367 0 372 0;
#X connect 367 0 376 0;
#X connect 368 0 369 0;
#X connect 368 0 373 0;
#X connect 369 0 375 0;
#X connect 370 0 306 0;
#X connect 371 0 370 1;
#X connect 372 0 368 0;
#X connect 373 0 368 1;
#X connect 374 0 370 1;
#X connect 374 0 376 0;
#X connect 375 0 370 1;
#X connect 375 0 372 0;
#X connect 375 1 374 0;
#X connect 376 0 368 0;
#X connect 377 0 365 0;
#X connect 378 0 370 0;
#X connect 379 0 357 1;
#X connect 379 1 354 0;
#X connect 380 0 370 1;
#X connect 380 1 367 0;
#X connect 381 0 9 0;
#X connect 382 0 9 0;
#X connect 383 0 9 0;
#X connect 384 0 9 0;
